<svg version="1.1" id="Layer_1" xmlns="http://www.w3.org/2000/svg" xmlns:xlink="http://www.w3.org/1999/xlink" x="0px" y="0px"
	 width="100%" viewBox="0 0 192 192" enable-background="new 0 0 192 192" xml:space="preserve">
<path fill="#000000" opacity="1.000000" stroke="none" 
	d="
M193.000000,51.000000 
	C193.000000,98.635948 193.000000,145.771896 193.000000,192.953918 
	C129.072433,192.953918 65.144821,192.953918 1.108604,192.953918 
	C1.108604,129.114243 1.108604,65.228256 1.108604,1.171129 
	C64.999611,1.171129 128.999786,1.171129 193.000000,1.171129 
	C193.000000,17.521578 193.000000,34.010788 193.000000,51.000000 
M15.053205,38.643887 
	C15.103202,39.094120 15.153199,39.544357 15.037807,40.919579 
	C15.025451,43.575176 14.998651,46.230797 15.002915,48.886368 
	C15.062889,86.227959 15.127095,123.569550 15.011722,161.849228 
	C15.011722,167.435410 15.011722,173.021591 15.011722,178.801880 
	C21.288908,178.801880 27.197098,178.801880 34.019386,178.944794 
	C45.662525,178.957962 57.305710,178.997833 68.948799,178.979111 
	C99.216347,178.930420 129.483856,178.856003 160.718384,178.980408 
	C166.766205,178.980408 172.814041,178.980408 178.823120,178.980408 
	C178.823120,171.938980 178.823120,165.506149 178.970474,158.137070 
	C178.977890,145.309830 179.009659,132.482529 178.987732,119.655334 
	C178.939056,91.173409 178.863480,62.691517 178.984451,33.252155 
	C178.984451,27.204935 178.984451,21.157715 178.984451,15.183678 
	C171.908859,15.183678 165.470932,15.183678 158.518082,15.086761 
	C158.336304,15.366796 158.154526,15.646830 157.123047,15.986811 
	C155.879517,15.666129 154.635956,15.065314 153.392456,15.065465 
	C115.927773,15.070010 78.463097,15.133855 40.193180,15.046632 
	C38.441689,15.352756 36.690193,15.658878 34.448383,15.968753 
	C34.448383,15.968753 33.971184,15.856048 33.528103,15.116592 
	C27.433651,15.116592 21.339199,15.116592 15.178547,15.116592 
	C15.178547,21.662861 15.178547,27.791929 15.036069,34.725258 
	C15.093502,35.809460 15.150935,36.893661 15.053205,38.643887 
z"/>
<path fill="#F01DF1" opacity="1.000000" stroke="none" 
	d="
M159.751389,178.791855 
	C129.483856,178.856003 99.216347,178.930420 68.948799,178.979111 
	C57.305710,178.997833 45.662525,178.957962 33.410629,178.567230 
	C28.935270,175.411377 24.743586,172.977997 21.309351,169.740982 
	C18.760183,167.338211 17.194201,163.892365 15.190271,160.911133 
	C15.127095,123.569550 15.062889,86.227959 15.002915,48.886368 
	C14.998651,46.230797 15.025451,43.575176 15.394145,40.486359 
	C16.168758,40.370323 16.587034,40.687511 17.004528,41.462219 
	C17.003799,45.279263 17.003853,48.638794 17.002468,52.398453 
	C17.002125,53.866432 17.003222,54.934284 17.003796,56.458946 
	C17.006783,60.280666 17.010290,63.645573 17.010796,67.408783 
	C17.010330,68.869781 17.012867,69.932480 17.011589,71.464134 
	C17.006004,96.725349 16.982517,121.517662 17.045425,146.309769 
	C17.050240,148.207321 17.665558,150.103348 18.157658,152.366135 
	C18.524897,153.356705 18.855328,153.968689 18.919956,154.607559 
	C20.165133,166.916489 24.283211,171.849976 36.088867,175.392044 
	C40.966042,176.517517 45.744637,177.866974 50.530525,177.893341 
	C84.276581,178.079346 118.024147,177.993805 151.771225,177.991837 
	C152.765717,177.991776 154.359344,178.345673 154.661942,177.878799 
	C157.661835,173.250275 162.013763,174.803299 165.910278,175.395447 
	C163.723145,176.707550 161.737274,177.749695 159.751389,178.791855 
z"/>
<path fill="#F01DF1" opacity="1.000000" stroke="none" 
	d="
M178.798874,34.209610 
	C178.863480,62.691517 178.939056,91.173409 178.987732,119.655334 
	C179.009659,132.482529 178.977890,145.309830 178.619293,158.797882 
	C177.196548,161.686478 176.125000,163.914246 175.026459,165.749359 
	C174.916779,163.442245 174.013153,160.492828 174.894531,159.793686 
	C178.579666,156.870483 176.972153,153.247452 176.976730,149.862488 
	C177.010101,125.238266 176.983032,100.613968 176.979599,75.659897 
	C176.981552,74.890099 176.978973,74.450096 176.983826,73.540451 
	C176.992966,62.381344 176.994644,51.691875 177.252869,40.785671 
	C176.673752,39.045231 175.838104,37.521530 175.001358,35.665138 
	C175.000793,34.888855 175.001312,34.445267 175.338318,33.945946 
	C176.152023,33.190029 176.629242,32.489849 177.324921,32.000092 
	C177.961884,32.876884 178.380386,33.543247 178.798874,34.209610 
z"/>
<path fill="#F217F3" opacity="1.000000" stroke="none" 
	d="
M40.998417,15.188400 
	C78.463097,15.133855 115.927773,15.070010 153.392456,15.065465 
	C154.635956,15.065314 155.879517,15.666129 157.596802,16.281908 
	C158.713715,17.051439 159.356857,17.525873 160.000137,18.250607 
	C160.000381,18.667772 160.000504,18.834642 159.563065,19.001911 
	C151.010727,18.335495 142.904602,17.264799 134.779251,17.090296 
	C120.193123,16.777042 105.595436,17.002197 90.602020,17.001556 
	C89.133255,17.001465 88.065056,17.002178 86.559647,17.002745 
	C84.082031,17.002190 82.041626,17.001781 79.625862,17.000875 
	C78.499779,17.000837 77.749046,17.001295 76.529770,17.001820 
	C64.374588,17.002396 52.687962,17.002911 41.000725,16.700920 
	C40.999554,15.995076 40.998985,15.591739 40.998417,15.188400 
z"/>
<path fill="#F8F1F9" opacity="1.000000" stroke="none" 
	d="
M175.053467,166.142014 
	C176.125000,163.914246 177.196548,161.686478 178.545609,159.266022 
	C178.823120,165.506149 178.823120,171.938980 178.823120,178.980408 
	C172.814041,178.980408 166.766205,178.980408 160.234894,178.886139 
	C161.737274,177.749695 163.723145,176.707550 165.900269,175.370544 
	C166.091522,175.075714 166.054092,175.110489 166.371185,175.077911 
	C167.483200,174.382980 168.278107,173.720612 169.043030,173.030762 
	C169.013031,173.003250 169.039154,173.080338 169.300262,173.012451 
	C169.747040,172.651993 169.932724,172.359436 170.105682,172.091797 
	C170.092926,172.116699 170.147247,172.103317 170.452454,171.980179 
	C171.980240,170.283646 173.202820,168.710266 174.602539,167.024719 
	C174.984924,166.696213 175.076187,166.439362 175.053467,166.142014 
z"/>
<path fill="#F9F2F9" opacity="1.000000" stroke="none" 
	d="
M178.891663,33.730881 
	C178.380386,33.543247 177.961884,32.876884 177.299255,31.653921 
	C173.405792,27.040293 169.756485,22.983265 165.931366,18.679440 
	C165.190140,18.256620 164.624695,18.080597 164.023468,17.939053 
	C163.987671,17.973534 164.073059,17.924099 163.991440,17.707844 
	C163.673523,17.246466 163.389816,17.163456 162.821396,17.110483 
	C162.403656,16.963366 162.223236,16.948320 161.829498,16.720837 
	C160.755142,16.066822 159.894073,15.625252 159.033005,15.183679 
	C165.470932,15.183678 171.908859,15.183678 178.984451,15.183678 
	C178.984451,21.157715 178.984451,27.204935 178.891663,33.730881 
z"/>
<path fill="#F8F1F8" opacity="1.000000" stroke="none" 
	d="
M15.178547,33.920998 
	C15.178547,27.791929 15.178547,21.662861 15.178547,15.116592 
	C21.339199,15.116592 27.433651,15.116592 33.423233,15.590556 
	C31.896265,16.758932 30.474171,17.453344 28.784208,18.180367 
	C27.955532,18.651527 27.394726,19.090078 26.503883,19.651508 
	C23.709038,22.485579 21.244226,25.196768 18.579872,28.029356 
	C18.158857,28.405416 18.081059,28.698265 17.937737,29.257874 
	C17.442150,30.243837 17.155760,31.001230 16.668383,31.958984 
	C16.037781,32.746563 15.608165,33.333778 15.178547,33.920998 
z"/>
<path fill="#F8F1F8" opacity="1.000000" stroke="none" 
	d="
M15.100996,161.380188 
	C17.194201,163.892365 18.760183,167.338211 21.309351,169.740982 
	C24.743586,172.977997 28.935270,175.411377 32.953579,178.495773 
	C27.197098,178.801880 21.288908,178.801880 15.011722,178.801880 
	C15.011722,173.021591 15.011722,167.435410 15.100996,161.380188 
z"/>
<path fill="#F315F4" opacity="1.000000" stroke="none" 
	d="
M26.833916,19.528627 
	C27.394726,19.090078 27.955532,18.651527 29.015305,18.416328 
	C30.903444,18.938824 32.418427,19.755239 33.648155,19.444130 
	C35.012096,19.099062 37.789356,18.306768 34.938702,15.965002 
	C36.690193,15.658878 38.441689,15.352756 40.595798,15.117516 
	C40.998985,15.591739 40.999554,15.995076 40.938164,17.046917 
	C38.250702,19.130102 35.625198,20.564783 32.571335,21.999550 
	C30.429142,22.000069 28.715307,22.000502 26.989208,21.588358 
	C26.929272,20.626728 26.881594,20.077679 26.833916,19.528627 
z"/>
<path fill="#F217F3" opacity="1.000000" stroke="none" 
	d="
M34.693542,15.966878 
	C37.789356,18.306768 35.012096,19.099062 33.648155,19.444130 
	C32.418427,19.755239 30.903444,18.938824 29.283173,18.383718 
	C30.474171,17.453344 31.896265,16.758932 33.644772,15.960283 
	C33.971184,15.856048 34.448383,15.968753 34.693542,15.966878 
z"/>
<path fill="#F217F3" opacity="1.000000" stroke="none" 
	d="
M17.005310,41.004704 
	C16.587034,40.687511 16.168758,40.370323 15.476839,40.023865 
	C15.153199,39.544357 15.103202,39.094120 15.398175,38.148361 
	C16.827196,37.100567 17.911247,36.548302 18.996670,36.390900 
	C18.333797,38.192078 17.669554,39.598392 17.005310,41.004704 
z"/>
<path fill="#F01DF1" opacity="1.000000" stroke="none" 
	d="
M18.995298,35.996033 
	C17.911247,36.548302 16.827196,37.100567 15.475758,37.815346 
	C15.150935,36.893661 15.093502,35.809460 15.107308,34.323128 
	C15.608165,33.333778 16.037781,32.746563 16.743490,32.298534 
	C17.679352,32.958534 18.339119,33.479343 18.998798,34.332829 
	C18.997570,35.109013 18.996435,35.552525 18.995298,35.996033 
z"/>
<path fill="#F11AF4" opacity="1.000000" stroke="none" 
	d="
M158.775543,15.135220 
	C159.894073,15.625252 160.755142,16.066822 161.531021,16.768457 
	C160.963882,17.352449 160.481949,17.676378 160.000000,18.000307 
	C159.356857,17.525873 158.713715,17.051439 158.021667,16.251934 
	C158.154526,15.646830 158.336304,15.366796 158.775543,15.135220 
z"/>
<path fill="#F713F8" opacity="1.000000" stroke="none" 
	d="
M175.026459,165.749359 
	C175.076187,166.439362 174.984924,166.696213 174.227722,167.008392 
	C171.144714,167.814255 168.527115,168.463226 170.147247,172.103317 
	C170.147247,172.103317 170.092926,172.116699 169.859818,172.180573 
	C169.430862,172.523087 169.235016,172.801712 169.039154,173.080338 
	C169.039154,173.080338 169.013031,173.003250 168.709991,173.036163 
	C167.622650,173.749557 166.838379,174.430023 166.054092,175.110489 
	C166.054092,175.110489 166.091522,175.075714 166.101532,175.100616 
	C162.013763,174.803299 157.661835,173.250275 154.661942,177.878799 
	C154.359344,178.345673 152.765717,177.991776 151.771225,177.991837 
	C118.024147,177.993805 84.276581,178.079346 50.530525,177.893341 
	C45.744637,177.866974 40.966042,176.517517 36.464851,175.390656 
	C37.497250,174.999573 38.248856,174.998276 39.250221,174.997177 
	C39.499977,174.997391 39.999489,174.996948 40.428047,174.997971 
	C42.571453,174.998718 44.286297,174.998444 46.469730,174.998444 
	C62.004330,174.998947 77.070343,174.999329 92.136360,174.999344 
	C109.782852,174.999359 127.438477,174.667145 145.071609,175.152527 
	C152.765274,175.364304 159.053406,173.042572 164.824448,168.488983 
	C169.846054,164.526733 174.357727,159.705536 174.400406,153.120850 
	C174.559570,128.562241 174.139847,104.000145 174.130188,79.439285 
	C174.129745,78.289787 175.984375,77.139572 176.975067,75.989693 
	C176.983032,100.613968 177.010101,125.238266 176.976730,149.862488 
	C176.972153,153.247452 178.579666,156.870483 174.894531,159.793686 
	C174.013153,160.492828 174.916779,163.442245 175.026459,165.749359 
z"/>
<path fill="#F712FC" opacity="1.000000" stroke="none" 
	d="
M39.000465,174.996964 
	C38.248856,174.998276 37.497250,174.999573 36.369656,175.002258 
	C24.283211,171.849976 20.165133,166.916489 18.919956,154.607559 
	C18.855328,153.968689 18.524897,153.356705 18.542316,152.275360 
	C19.138348,149.668869 19.821377,147.517517 19.809772,145.369934 
	C19.792072,142.094040 19.000710,138.815216 19.062426,135.547531 
	C19.182388,129.196014 19.783649,122.854721 19.965319,116.502892 
	C20.129498,110.762596 19.951145,105.013321 20.019581,99.269142 
	C20.056963,96.131561 19.795544,92.480362 24.223566,92.141518 
	C28.826731,91.789276 30.667833,93.880959 31.038399,98.826279 
	C31.119011,99.902077 31.667952,100.942795 32.000916,102.399689 
	C31.999914,103.866394 31.999195,104.933083 31.620554,106.086014 
	C30.828245,108.448280 30.413855,110.724289 29.635727,112.932129 
	C24.551735,109.798676 23.034487,110.113876 22.480516,115.473114 
	C21.771971,122.327751 21.813025,129.285248 21.924595,136.192062 
	C22.032780,142.889404 22.732758,149.575089 22.989061,156.272949 
	C23.125830,159.847031 27.252001,165.386856 30.394085,167.394302 
	C33.581089,169.430450 36.156944,172.423187 39.000465,174.996964 
z"/>
<path fill="#F515FA" opacity="1.000000" stroke="none" 
	d="
M32.001194,101.999664 
	C31.667952,100.942795 31.119011,99.902077 31.038399,98.826279 
	C30.667833,93.880959 28.826731,91.789276 24.223566,92.141518 
	C19.795544,92.480362 20.056963,96.131561 20.019581,99.269142 
	C19.951145,105.013321 20.129498,110.762596 19.965319,116.502892 
	C19.783649,122.854721 19.182388,129.196014 19.062426,135.547531 
	C19.000710,138.815216 19.792072,142.094040 19.809772,145.369934 
	C19.821377,147.517517 19.138348,149.668869 18.381760,151.909302 
	C17.665558,150.103348 17.050240,148.207321 17.045425,146.309769 
	C16.982517,121.517662 17.006004,96.725349 17.384331,71.465591 
	C18.507257,70.998734 19.253630,70.999367 20.000000,71.000000 
	C20.000000,71.000000 20.000076,71.000000 20.005899,71.342361 
	C20.477905,72.316437 20.944088,72.948151 21.410271,73.579865 
	C21.940590,72.720314 22.470907,71.860771 23.334354,71.001129 
	C24.111658,71.000992 24.555832,71.000954 25.111528,71.216698 
	C25.422678,71.701561 25.681091,71.890083 25.851830,72.326096 
	C21.859190,80.203232 22.933754,85.399162 29.580492,90.303902 
	C33.974606,93.546387 33.829487,97.557182 32.001194,101.999664 
M20.240862,86.244431 
	C20.967773,86.622162 21.694685,86.999893 22.421597,87.377632 
	C22.435713,86.652626 22.449831,85.927612 22.463947,85.202606 
	C21.688231,85.330009 20.912514,85.457420 20.240862,86.244431 
z"/>
<path fill="#F515FA" opacity="1.000000" stroke="none" 
	d="
M18.996670,36.390900 
	C18.996435,35.552525 18.997570,35.109013 19.265972,34.096355 
	C19.688480,32.351383 19.843725,31.175560 20.332447,29.999767 
	C21.110540,29.999863 21.555155,29.999931 21.999969,30.448694 
	C21.332714,37.932152 20.665260,44.966915 19.623472,52.001106 
	C18.500727,51.999794 17.752317,51.999058 17.003906,51.998322 
	C17.003853,48.638794 17.003799,45.279263 17.004528,41.462219 
	C17.669554,39.598392 18.333797,38.192078 18.996670,36.390900 
z"/>
<path fill="#F515FA" opacity="1.000000" stroke="none" 
	d="
M17.013798,67.010483 
	C17.010290,63.645573 17.006783,60.280666 17.377766,56.458122 
	C18.500689,55.999714 19.249125,55.998940 19.998558,56.398338 
	C20.000086,57.865501 20.000614,58.932487 20.000772,60.413292 
	C19.683657,63.022961 19.366915,65.218811 19.050173,67.414665 
	C18.371382,67.279938 17.692589,67.145210 17.013798,67.010483 
z"/>
<path fill="#F712FC" opacity="1.000000" stroke="none" 
	d="
M17.010796,67.408783 
	C17.692589,67.145210 18.371382,67.279938 19.050173,67.414665 
	C19.366915,65.218811 19.683657,63.022961 20.370676,60.494949 
	C21.107561,61.776020 21.887129,63.428585 21.738159,64.992714 
	C21.543949,67.031822 20.613592,69.000832 20.000000,71.000000 
	C19.253630,70.999367 18.507257,70.998734 17.388145,70.996643 
	C17.012867,69.932480 17.010330,68.869781 17.010796,67.408783 
z"/>
<path fill="#F317F5" opacity="1.000000" stroke="none" 
	d="
M19.997559,55.998169 
	C19.249125,55.998940 18.500689,55.999714 17.378284,56.001312 
	C17.003222,54.934284 17.002125,53.866432 17.002468,52.398453 
	C17.752317,51.999058 18.500727,51.999794 19.623907,52.400734 
	C19.998304,53.866680 19.997931,54.932423 19.997559,55.998169 
z"/>
<path fill="#F910FD" opacity="1.000000" stroke="none" 
	d="
M19.998558,56.398338 
	C19.997931,54.932423 19.998304,53.866680 19.998241,52.401306 
	C20.665260,44.966915 21.332714,37.932152 22.000534,30.115486 
	C22.001707,28.889324 22.002514,28.445063 22.116245,27.785452 
	C22.429976,27.301861 22.688721,27.112988 23.400965,27.001892 
	C26.864347,26.000023 29.932175,24.999739 33.387051,23.951168 
	C39.043861,22.401436 44.101341,21.554693 49.886192,22.225008 
	C58.613361,23.236261 67.581749,22.174221 76.447136,21.972467 
	C77.434372,21.950001 78.416603,21.755722 79.404457,21.702784 
	C82.405815,21.541948 85.409370,21.296900 88.410927,21.312035 
	C90.204178,21.321074 92.001991,22.006063 93.786209,21.958063 
	C102.965706,21.711119 112.141602,21.328703 121.318245,20.980282 
	C121.977776,20.955240 122.633705,20.827309 123.290581,20.741600 
	C137.615295,18.872515 151.609619,20.113539 164.639252,26.570343 
	C167.421997,27.949327 168.867172,31.963131 171.030197,34.682247 
	C172.244095,36.208241 173.666199,37.568607 174.995850,39.336159 
	C174.997711,40.112225 174.998245,40.555733 174.709686,41.298355 
	C174.282806,51.427692 174.060120,61.258591 174.138824,71.087074 
	C174.146683,72.068924 175.986694,73.036102 176.976379,74.010086 
	C176.978973,74.450096 176.981552,74.890099 176.979599,75.659897 
	C175.984375,77.139572 174.129745,78.289787 174.130188,79.439285 
	C174.139847,104.000145 174.559570,128.562241 174.400406,153.120850 
	C174.357727,159.705536 169.846054,164.526733 164.824448,168.488983 
	C159.053406,173.042572 152.765274,175.364304 145.071609,175.152527 
	C127.438477,174.667145 109.782852,174.999359 92.136360,174.999344 
	C77.070343,174.999329 62.004330,174.998947 46.427773,174.650177 
	C43.404114,169.933136 41.733627,172.735901 39.999489,174.996948 
	C39.999489,174.996948 39.499977,174.997391 39.250221,174.997177 
	C36.156944,172.423187 33.581089,169.430450 30.394085,167.394302 
	C27.252001,165.386856 23.125830,159.847031 22.989061,156.272949 
	C22.732758,149.575089 22.032780,142.889404 21.924595,136.192062 
	C21.813025,129.285248 21.771971,122.327751 22.480516,115.473114 
	C23.034487,110.113876 24.551735,109.798676 29.638306,113.269051 
	C30.336338,114.449387 30.668055,115.224625 30.999920,116.449692 
	C31.332554,121.493721 32.349705,126.166397 31.834194,130.663391 
	C31.093956,137.120743 34.416420,140.878372 38.930573,144.143951 
	C43.763691,147.640274 52.834900,144.435120 54.209343,138.877747 
	C54.684822,138.561996 54.876328,138.307571 55.331261,137.947906 
	C57.410423,136.258575 59.153954,134.620117 61.558483,132.360504 
	C62.120567,133.413101 62.496574,133.978149 62.740730,134.595352 
	C66.196449,143.330902 74.305145,144.974823 82.011978,146.846481 
	C85.925079,147.796783 92.306564,143.664001 94.208496,139.771301 
	C95.249802,139.326675 96.087761,139.137665 97.309982,138.960358 
	C98.783707,137.629562 99.873154,136.287064 101.074280,134.735138 
	C101.384468,134.268677 101.634972,134.081024 102.299698,133.933960 
	C106.528374,130.874039 110.504898,132.300842 112.634262,135.428482 
	C117.541939,142.636948 125.395744,143.574493 132.486954,146.320068 
	C136.243668,147.774597 138.393127,146.118942 140.311829,142.967972 
	C141.067917,142.954193 141.499969,142.948502 142.343994,142.962402 
	C147.813477,142.753891 152.153427,141.378922 153.984024,135.983734 
	C154.000000,136.000000 153.967575,135.968277 154.328003,135.937103 
	C156.545242,133.745911 158.666641,131.747910 160.135010,129.350037 
	C160.765991,128.319626 160.041595,126.459244 159.992859,124.593834 
	C160.705521,121.472923 161.358307,118.734116 162.381622,115.949913 
	C166.968201,112.853912 167.100906,105.873093 163.010376,101.624146 
	C163.004028,100.498398 163.003784,99.747833 163.360306,98.923790 
	C164.032898,97.875862 164.712692,96.855980 164.597748,95.935326 
	C164.220947,92.917671 163.716217,89.894165 162.950531,86.953667 
	C162.318573,84.526741 161.320999,82.182838 160.338684,79.864334 
	C159.829285,78.662018 158.554214,77.655540 158.390717,76.456200 
	C157.368362,68.957664 151.095291,66.242462 145.876816,62.696976 
	C144.495316,61.758366 141.621124,62.768532 140.507416,61.730465 
	C137.140396,58.592125 133.773590,56.860115 129.325729,59.063938 
	C125.661827,60.879326 121.493217,62.180805 118.554367,64.827255 
	C114.864677,68.149849 112.201172,72.612007 108.255882,77.654633 
	C105.723450,74.290268 103.359474,71.149712 101.124855,67.704193 
	C101.053825,66.397209 101.184250,64.814804 100.601929,64.482910 
	C94.737717,61.140568 88.850609,57.808941 82.777649,54.871902 
	C78.212936,52.664295 74.024658,54.551617 70.263054,57.303371 
	C68.132133,58.862217 65.903412,60.431488 64.213829,62.417297 
	C61.341152,65.793617 59.263470,64.902435 56.510750,62.180908 
	C53.447903,59.152775 50.802116,55.053123 45.360023,55.979107 
	C36.013958,57.569355 30.337543,64.032036 25.000006,71.000916 
	C24.555832,71.000954 24.111658,71.000992 22.959183,71.000702 
	C21.500614,71.000244 20.750345,71.000122 20.000076,71.000000 
	C20.000076,71.000000 20.000000,71.000000 20.000000,71.000000 
	C20.613592,69.000832 21.543949,67.031822 21.738159,64.992714 
	C21.887129,63.428585 21.107561,61.776020 20.371048,60.081131 
	C20.000614,58.932487 20.000086,57.865501 19.998558,56.398338 
z"/>
<path fill="#F713F8" opacity="1.000000" stroke="none" 
	d="
M174.994507,39.003593 
	C173.666199,37.568607 172.244095,36.208241 171.030197,34.682247 
	C168.867172,31.963131 167.421997,27.949327 164.639252,26.570343 
	C151.609619,20.113539 137.615295,18.872515 123.290581,20.741600 
	C122.633705,20.827309 121.977776,20.955240 121.318245,20.980282 
	C112.141602,21.328703 102.965706,21.711119 93.786209,21.958063 
	C92.001991,22.006063 90.204178,21.321074 88.410927,21.312035 
	C85.409370,21.296900 82.405815,21.541948 79.404457,21.702784 
	C78.416603,21.755722 77.434372,21.950001 76.447136,21.972467 
	C67.581749,22.174221 58.613361,23.236261 49.886192,22.225008 
	C44.101341,21.554693 39.043861,22.401436 33.387028,23.617847 
	C32.999866,22.888367 32.999783,22.443916 32.999695,21.999466 
	C35.625198,20.564783 38.250702,19.130102 40.938766,17.349422 
	C52.687962,17.002911 64.374588,17.002396 76.583908,17.332216 
	C78.071465,17.442158 79.036346,17.221766 80.001221,17.001373 
	C82.041626,17.001781 84.082031,17.002190 86.625938,17.345779 
	C88.812325,19.670483 90.151260,19.711754 91.002586,17.002365 
	C105.595436,17.002197 120.193123,16.777042 134.779251,17.090296 
	C142.904602,17.264799 151.010727,18.335495 159.917831,19.045033 
	C163.374588,20.702061 166.191055,22.118656 168.645477,24.006073 
	C170.079178,25.108562 171.032928,26.902124 172.023392,28.496132 
	C173.122635,30.265181 174.017807,32.161034 175.001831,34.001678 
	C175.001312,34.445267 175.000793,34.888855 175.000336,36.040855 
	C174.998428,37.500713 174.996460,38.252151 174.994507,39.003593 
z"/>
<path fill="#F713F8" opacity="1.000000" stroke="none" 
	d="
M176.983841,73.540451 
	C175.986694,73.036102 174.146683,72.068924 174.138824,71.087074 
	C174.060120,61.258591 174.282806,51.427692 175.042633,41.298813 
	C176.108597,41.000904 176.552460,41.001659 176.996338,41.002411 
	C176.994644,51.691875 176.992966,62.381344 176.983841,73.540451 
z"/>
<path fill="#F315F4" opacity="1.000000" stroke="none" 
	d="
M175.338318,33.945946 
	C174.017807,32.161034 173.122635,30.265181 172.023392,28.496132 
	C171.032928,26.902124 170.079178,25.108562 168.645477,24.006073 
	C166.191055,22.118656 163.374588,20.702061 160.355377,19.044634 
	C160.000504,18.834642 160.000381,18.667772 160.000137,18.250607 
	C160.481949,17.676378 160.963882,17.352449 161.744324,16.980900 
	C162.223236,16.948320 162.403656,16.963366 162.944794,17.282677 
	C163.522354,17.788012 163.778214,17.900394 164.073059,17.924099 
	C164.073059,17.924099 163.987671,17.973534 164.180481,18.206667 
	C164.951263,18.601946 165.529205,18.764090 166.107162,18.926235 
	C169.756485,22.983265 173.405792,27.040293 177.080795,31.443493 
	C176.629242,32.489849 176.152023,33.190029 175.338318,33.945946 
z"/>
<path fill="#F315F4" opacity="1.000000" stroke="none" 
	d="
M177.252869,40.785675 
	C176.552460,41.001659 176.108597,41.000904 175.331757,40.999695 
	C174.998245,40.555733 174.997711,40.112225 174.995850,39.336159 
	C174.996460,38.252151 174.998428,37.500713 175.001404,36.373550 
	C175.838104,37.521530 176.673752,39.045231 177.252869,40.785675 
z"/>
<path fill="#F315F4" opacity="1.000000" stroke="none" 
	d="
M90.602020,17.001556 
	C90.151260,19.711754 88.812325,19.670483 87.063156,17.345924 
	C88.065056,17.002178 89.133255,17.001465 90.602020,17.001556 
z"/>
<path fill="#F315F4" opacity="1.000000" stroke="none" 
	d="
M79.625862,17.000875 
	C79.036346,17.221766 78.071465,17.442158 77.052460,17.332153 
	C77.749046,17.001295 78.499779,17.000837 79.625862,17.000875 
z"/>
<path fill="#F01DF1" opacity="1.000000" stroke="none" 
	d="
M170.452454,171.980179 
	C168.527115,168.463226 171.144714,167.814255 174.050598,167.120544 
	C173.202820,168.710266 171.980240,170.283646 170.452454,171.980179 
z"/>
<path fill="#F01DF1" opacity="1.000000" stroke="none" 
	d="
M166.371185,175.077911 
	C166.838379,174.430023 167.622650,173.749557 168.739990,173.063675 
	C168.278107,173.720612 167.483200,174.382980 166.371185,175.077911 
z"/>
<path fill="#F01DF1" opacity="1.000000" stroke="none" 
	d="
M169.300262,173.012451 
	C169.235016,172.801712 169.430862,172.523087 169.872559,172.155670 
	C169.932724,172.359436 169.747040,172.651993 169.300262,173.012451 
z"/>
<path fill="#F11AF4" opacity="1.000000" stroke="none" 
	d="
M165.931366,18.679438 
	C165.529205,18.764090 164.951263,18.601946 164.216278,18.172188 
	C164.624695,18.080597 165.190140,18.256620 165.931366,18.679438 
z"/>
<path fill="#F11AF4" opacity="1.000000" stroke="none" 
	d="
M163.991440,17.707844 
	C163.778214,17.900394 163.522354,17.788012 163.182098,17.414753 
	C163.389816,17.163456 163.673523,17.246466 163.991440,17.707844 
z"/>
<path fill="#F217F3" opacity="1.000000" stroke="none" 
	d="
M23.005405,27.003479 
	C22.688721,27.112988 22.429976,27.301861 21.713482,27.784575 
	C20.391665,27.968683 19.585539,27.938320 18.779413,27.907957 
	C21.244226,25.196768 23.709038,22.485579 26.503883,19.651508 
	C26.881594,20.077679 26.929272,20.626728 26.847433,21.877640 
	C25.480415,24.054161 24.242910,25.528820 23.005405,27.003479 
z"/>
<path fill="#F217F3" opacity="1.000000" stroke="none" 
	d="
M19.998970,29.999737 
	C19.843725,31.175560 19.688480,32.351383 19.266062,33.763680 
	C18.339119,33.479343 17.679352,32.958534 16.944475,32.098175 
	C17.155760,31.001230 17.442150,30.243837 18.177773,29.362993 
	C19.084326,29.492941 19.541647,29.746340 19.998970,29.999737 
z"/>
<path fill="#F315F4" opacity="1.000000" stroke="none" 
	d="
M20.332447,29.999767 
	C19.541647,29.746340 19.084326,29.492941 18.386967,29.134422 
	C18.081059,28.698265 18.158857,28.405416 18.579872,28.029356 
	C19.585539,27.938320 20.391665,27.968683 21.600555,27.999924 
	C22.002514,28.445063 22.001707,28.889324 22.000336,29.666794 
	C21.555155,29.999931 21.110540,29.999863 20.332447,29.999767 
z"/>
<path fill="#F515FA" opacity="1.000000" stroke="none" 
	d="
M23.400963,27.001892 
	C24.242910,25.528820 25.480415,24.054161 26.859695,22.290218 
	C28.715307,22.000502 30.429142,22.000069 32.571335,21.999550 
	C32.999783,22.443916 32.999866,22.888367 32.999977,23.666138 
	C29.932175,24.999739 26.864347,26.000023 23.400963,27.001892 
z"/>
<path fill="#F712FC" opacity="1.000000" stroke="none" 
	d="
M40.428047,174.997971 
	C41.733627,172.735901 43.404114,169.933136 45.959187,174.649887 
	C44.286297,174.998444 42.571453,174.998718 40.428047,174.997971 
z"/>
<path fill="#F317F5" opacity="1.000000" stroke="none" 
	d="
M53.997574,138.993423 
	C52.834900,144.435120 43.763691,147.640274 38.930573,144.143951 
	C34.416420,140.878372 31.093956,137.120743 31.834194,130.663391 
	C32.349705,126.166397 31.332554,121.493721 31.285574,116.159775 
	C31.713545,112.279938 31.856012,109.139847 31.998476,105.999763 
	C31.999195,104.933083 31.999914,103.866394 32.000916,102.399689 
	C33.829487,97.557182 33.974606,93.546387 29.580492,90.303902 
	C22.933754,85.399162 21.859190,80.203232 26.043419,72.058464 
	C27.918396,70.305740 29.455320,69.148720 31.029537,68.314713 
	C31.451769,69.123306 31.836708,69.608887 32.095631,70.365204 
	C31.580408,71.085487 31.191202,71.535027 30.437492,71.996246 
	C29.074549,73.364601 28.076109,74.721283 27.041220,76.051804 
	C27.004770,76.025627 27.093525,76.038887 26.799212,76.221359 
	C24.652475,78.808327 24.486958,81.027809 27.448778,83.071449 
	C28.122591,83.770882 28.568203,84.328209 29.149017,85.214706 
	C35.987991,87.936836 36.833683,93.177940 35.992149,99.268478 
	C35.904106,99.905647 36.070141,100.577919 36.166115,101.686035 
	C35.863781,110.907974 35.448830,119.675858 35.186024,128.448288 
	C35.008064,134.388687 37.386124,137.798447 43.122337,140.541779 
	C47.391361,143.524490 50.793667,141.818329 53.997574,138.993423 
z"/>
<path fill="#F515FA" opacity="1.000000" stroke="none" 
	d="
M31.620556,106.086014 
	C31.856012,109.139847 31.713545,112.279938 31.285425,115.709938 
	C30.668055,115.224625 30.336338,114.449387 30.002043,113.337234 
	C30.413855,110.724289 30.828245,108.448280 31.620556,106.086014 
z"/>
<path fill="#F712FC" opacity="1.000000" stroke="none" 
	d="
M30.992247,67.991707 
	C29.455320,69.148720 27.918396,70.305740 26.189882,71.730392 
	C25.681091,71.890083 25.422678,71.701561 25.111528,71.216698 
	C30.337543,64.032036 36.013958,57.569355 45.360023,55.979107 
	C50.802116,55.053123 53.447903,59.152775 56.510750,62.180908 
	C59.263470,64.902435 61.341152,65.793617 64.213829,62.417297 
	C65.903412,60.431488 68.132133,58.862217 70.263054,57.303371 
	C74.024658,54.551617 78.212936,52.664295 82.777649,54.871902 
	C88.850609,57.808941 94.737717,61.140568 100.601929,64.482910 
	C101.184250,64.814804 101.053825,66.397209 100.786957,67.734680 
	C99.237228,68.361740 98.154755,68.653336 96.941269,68.739365 
	C96.606148,68.270668 96.351067,68.073471 95.954834,67.797005 
	C95.864662,67.651810 95.437119,67.509720 95.437119,67.509720 
	C95.437119,67.509720 95.145119,67.868195 95.125092,67.863953 
	C95.105064,67.859703 95.072525,67.884407 94.843529,67.798004 
	C94.325966,67.533417 94.119263,67.286644 93.877350,66.751862 
	C93.534653,66.263580 93.247231,66.111450 92.945663,66.064667 
	C92.993347,66.053284 92.925362,66.123917 92.818886,65.769348 
	C91.782394,60.787815 88.804199,62.105251 85.935959,63.091637 
	C85.928665,63.100849 85.909843,63.114933 85.894012,62.785660 
	C78.217148,59.387592 67.211151,62.948929 60.294426,70.984413 
	C58.674156,69.634651 57.178112,68.074112 55.393963,66.985954 
	C53.407005,65.774094 51.157887,64.992081 49.004112,64.024384 
	C48.985340,64.025818 48.968597,63.992085 48.811737,63.670059 
	C46.748882,63.254185 44.842888,63.160339 42.681534,63.238972 
	C41.655094,63.621696 40.884014,63.831947 39.705326,64.029892 
	C36.529228,65.342300 33.760738,66.667007 30.992247,67.991707 
z"/>
<path fill="#F712FC" opacity="1.000000" stroke="none" 
	d="
M20.188829,85.914627 
	C20.912514,85.457420 21.688231,85.330009 22.463947,85.202606 
	C22.449831,85.927612 22.435713,86.652626 22.421597,87.377632 
	C21.694685,86.999893 20.967773,86.622162 20.188829,85.914627 
z"/>
<path fill="#F712FC" opacity="1.000000" stroke="none" 
	d="
M20.005899,71.342361 
	C20.750345,71.000122 21.500614,71.000244 22.626053,71.000793 
	C22.470907,71.860771 21.940590,72.720314 21.410271,73.579865 
	C20.944088,72.948151 20.477905,72.316437 20.005899,71.342361 
z"/>
<path fill="#F01BF4" opacity="1.000000" stroke="none" 
	d="
M97.072273,68.944931 
	C98.154755,68.653336 99.237228,68.361740 100.657608,68.039650 
	C103.359474,71.149712 105.723450,74.290268 108.255882,77.654633 
	C112.201172,72.612007 114.864677,68.149849 118.554367,64.827255 
	C121.493217,62.180805 125.661827,60.879326 129.325729,59.063938 
	C133.773590,56.860115 137.140396,58.592125 140.507416,61.730465 
	C141.621124,62.768532 144.495316,61.758366 145.876816,62.696976 
	C151.095291,66.242462 157.368362,68.957664 158.390717,76.456200 
	C158.554214,77.655540 159.829285,78.662018 160.338684,79.864334 
	C161.320999,82.182838 162.318573,84.526741 162.950531,86.953667 
	C163.716217,89.894165 164.220947,92.917671 164.597748,95.935326 
	C164.712692,96.855980 164.032898,97.875862 163.304535,98.537155 
	C162.336288,96.214912 161.869904,94.175362 161.198242,92.205803 
	C160.595169,90.437325 159.766541,88.745758 158.946609,86.648651 
	C157.956421,84.020523 157.144333,81.724503 156.143936,79.513687 
	C147.499176,60.409317 128.129089,57.367081 116.428551,72.785606 
	C116.335228,72.908592 116.153389,72.964401 115.635483,73.083389 
	C114.556274,74.585678 113.854469,76.056160 113.152016,77.802620 
	C112.793800,78.710632 112.436234,79.342659 111.815582,80.142838 
	C111.036774,81.213104 110.521065,82.115211 110.040924,83.364365 
	C110.109779,84.174248 110.143074,84.637108 109.858047,85.215576 
	C106.730881,88.583931 106.157394,85.298668 105.215836,83.748207 
	C102.412590,79.132111 99.738113,74.437813 97.024597,69.566536 
	C97.035873,69.359001 97.072273,68.944923 97.072273,68.944931 
z"/>
<path fill="#F216F5" opacity="1.000000" stroke="none" 
	d="
M139.987762,142.976044 
	C138.393127,146.118942 136.243668,147.774597 132.486954,146.320068 
	C125.395744,143.574493 117.541939,142.636948 112.634262,135.428482 
	C110.504898,132.300842 106.528374,130.874039 102.318649,133.567383 
	C104.184914,127.660400 106.378197,122.084518 108.648720,116.540260 
	C108.771484,116.240494 109.541451,116.205765 110.094574,116.176956 
	C110.178993,116.306259 110.095001,116.604599 110.066696,116.991081 
	C110.401695,118.252892 110.765007,119.128212 111.355675,120.259018 
	C115.066154,125.564667 118.549263,130.614853 122.148331,135.972626 
	C122.841805,136.524902 123.419319,136.769562 123.997635,137.007690 
	C123.998444,137.001175 123.986351,137.008606 124.100464,137.240173 
	C124.513786,137.627396 124.812981,137.783066 125.099586,137.892944 
	C125.086998,137.847122 125.161690,137.788361 125.250023,138.135712 
	C130.221497,139.980713 135.104630,141.478378 139.987762,142.976044 
z"/>
<path fill="#EF18F3" opacity="1.000000" stroke="none" 
	d="
M94.005135,140.026917 
	C92.306564,143.664001 85.925079,147.796783 82.011978,146.846481 
	C74.305145,144.974823 66.196449,143.330902 62.740730,134.595352 
	C62.496574,133.978149 62.120567,133.413101 61.558483,132.360504 
	C59.153954,134.620117 57.410423,136.258575 55.334541,137.519699 
	C55.330677,132.784882 55.625023,128.424423 56.000214,124.070953 
	C56.232468,121.376022 56.587589,118.691689 57.033180,116.332870 
	C60.790733,122.692940 64.402672,128.722733 68.113251,135.028503 
	C68.537025,135.500275 68.862144,135.696075 69.127670,135.896973 
	C69.068069,135.902069 69.089073,135.784302 69.217651,136.073929 
	C69.916481,136.567993 70.486732,136.772446 71.030655,136.990128 
	C71.004318,137.003372 71.001343,136.944489 71.123703,137.185394 
	C71.571045,137.555984 71.896034,137.685669 72.167160,137.816742 
	C72.113281,137.818115 72.161217,137.721588 72.256699,138.081848 
	C76.365273,142.003830 81.177292,141.391556 86.187065,141.301514 
	C88.958542,141.049210 91.481842,140.538071 94.005135,140.026917 
z"/>
<path fill="#D421D9" opacity="1.000000" stroke="none" 
	d="
M140.311829,142.967972 
	C135.104630,141.478378 130.221497,139.980713 125.644501,138.167999 
	C137.870972,141.782257 147.969177,138.148453 153.901962,127.234932 
	C156.173218,123.056877 158.444748,118.392639 158.844543,113.787468 
	C159.613800,104.926270 159.048965,95.949249 159.037415,87.020264 
	C159.766541,88.745758 160.595169,90.437325 161.198242,92.205803 
	C161.869904,94.175362 162.336288,96.214912 162.947784,98.610641 
	C163.003784,99.747833 163.004028,100.498398 162.998230,102.078781 
	C162.665161,107.270844 162.338120,111.633080 162.011093,115.995316 
	C161.358307,118.734116 160.705521,121.472923 159.693192,124.766930 
	C157.544952,128.870850 155.756271,132.419571 153.967575,135.968277 
	C153.967575,135.968277 154.000000,136.000000 153.631561,136.023560 
	C149.486084,138.345673 145.709045,140.644241 141.932007,142.942810 
	C141.499969,142.948502 141.067917,142.954193 140.311829,142.967972 
z"/>
<path fill="#D421D8" opacity="1.000000" stroke="none" 
	d="
M94.208496,139.771301 
	C91.481842,140.538071 88.958542,141.049210 86.403236,141.033844 
	C87.874603,139.586884 89.377968,138.666428 90.894531,137.801880 
	C90.907738,137.857788 90.794228,137.840027 91.051590,137.796265 
	C91.540169,137.503311 91.771385,137.254135 92.001297,137.002472 
	C92.000000,137.000000 92.004845,137.003769 92.318619,136.975327 
	C93.058517,136.540878 93.484650,136.134857 94.100677,135.464813 
	C102.014877,128.663086 104.950546,119.651077 106.849548,109.841789 
	C108.126221,110.498566 108.974106,110.934761 109.790855,111.754845 
	C109.843201,113.441711 109.926674,114.744690 110.010147,116.047668 
	C109.541451,116.205765 108.771484,116.240494 108.648720,116.540260 
	C106.378197,122.084518 104.184914,127.660400 101.956390,133.596191 
	C101.634972,134.081024 101.384468,134.268677 100.737274,134.786743 
	C99.167648,136.348083 98.046677,137.648361 96.925713,138.948654 
	C96.087761,139.137665 95.249802,139.326675 94.208496,139.771301 
z"/>
<path fill="#D310D9" opacity="1.000000" stroke="none" 
	d="
M56.887558,116.002594 
	C56.587589,118.691689 56.232468,121.376022 56.000214,124.070953 
	C55.625023,128.424423 55.330677,132.784882 54.998905,137.570587 
	C54.876328,138.307571 54.684822,138.561996 54.209343,138.877747 
	C50.793667,141.818329 47.391361,143.524490 43.510933,140.472031 
	C49.475674,139.446228 52.954540,135.770813 52.994984,130.253479 
	C53.031269,125.304413 52.696819,120.326027 53.149956,115.418190 
	C53.367111,113.066208 55.026974,110.847427 56.098862,109.063858 
	C56.405376,111.707130 56.646465,113.854858 56.887558,116.002594 
z"/>
<path fill="#F01BF4" opacity="1.000000" stroke="none" 
	d="
M162.381622,115.949913 
	C162.338120,111.633080 162.665161,107.270844 163.004333,102.453979 
	C167.100906,105.873093 166.968201,112.853912 162.381622,115.949913 
z"/>
<path fill="#F216F5" opacity="1.000000" stroke="none" 
	d="
M142.343994,142.962387 
	C145.709045,140.644241 149.486084,138.345673 153.615585,136.007294 
	C152.153427,141.378922 147.813477,142.753891 142.343994,142.962387 
z"/>
<path fill="#F216F5" opacity="1.000000" stroke="none" 
	d="
M154.328003,135.937103 
	C155.756271,132.419571 157.544952,128.870850 159.633331,125.149040 
	C160.041595,126.459244 160.765991,128.319626 160.135010,129.350037 
	C158.666641,131.747910 156.545242,133.745911 154.328003,135.937103 
z"/>
<path fill="#F216F5" opacity="1.000000" stroke="none" 
	d="
M97.309982,138.960358 
	C98.046677,137.648361 99.167648,136.348083 100.625610,134.996185 
	C99.873154,136.287064 98.783707,137.629562 97.309982,138.960358 
z"/>
<path fill="#F9F4FA" opacity="1.000000" stroke="none" 
	d="
M56.033436,108.568321 
	C55.026974,110.847427 53.367111,113.066208 53.149956,115.418190 
	C52.696819,120.326027 53.031269,125.304413 52.994984,130.253479 
	C52.954540,135.770813 49.475674,139.446228 43.411415,140.109467 
	C37.386124,137.798447 35.008064,134.388687 35.186024,128.448288 
	C35.448830,119.675858 35.863781,110.907974 36.344799,101.298782 
	C36.715855,95.443733 36.956051,90.428047 37.176079,85.833504 
	C34.052574,85.470734 31.533194,85.178131 29.013815,84.885529 
	C28.568203,84.328209 28.122591,83.770882 27.366692,82.644264 
	C27.068779,80.062943 27.081152,78.050911 27.093525,76.038887 
	C27.093525,76.038887 27.004770,76.025627 27.320824,75.905563 
	C28.691917,74.518524 29.746958,73.251549 30.801998,71.984573 
	C31.191202,71.535027 31.580408,71.085487 32.407452,70.248619 
	C35.267841,67.921600 37.690392,65.981895 40.112938,64.042198 
	C40.884014,63.831947 41.655094,63.621696 43.058655,63.327229 
	C45.450287,63.492699 47.209442,63.742393 48.968597,63.992088 
	C48.968597,63.992085 48.985340,64.025818 49.181488,64.293716 
	C50.921158,66.349678 52.464680,68.137733 53.992630,70.402031 
	C53.968933,81.921951 53.960804,92.965622 53.880089,104.453911 
	C54.551933,106.107880 55.296364,107.317230 56.038696,108.553719 
	C56.036594,108.580849 56.033436,108.568321 56.033436,108.568321 
z"/>
<path fill="#D837D3" opacity="1.000000" stroke="none" 
	d="
M29.149017,85.214699 
	C31.533194,85.178131 34.052574,85.470734 37.176079,85.833504 
	C36.956051,90.428047 36.715855,95.443733 36.296974,100.846664 
	C36.070141,100.577919 35.904106,99.905647 35.992149,99.268478 
	C36.833683,93.177940 35.987991,87.936836 29.149017,85.214699 
z"/>
<path fill="#EF1EF3" opacity="1.000000" stroke="none" 
	d="
M39.705326,64.029892 
	C37.690392,65.981895 35.267841,67.921600 32.533470,69.977882 
	C31.836708,69.608887 31.451769,69.123306 31.029539,68.314713 
	C33.760738,66.667007 36.529228,65.342300 39.705326,64.029892 
z"/>
<path fill="#EF1EF3" opacity="1.000000" stroke="none" 
	d="
M26.799212,76.221359 
	C27.081152,78.050911 27.068779,80.062943 27.138491,82.502151 
	C24.486958,81.027809 24.652475,78.808327 26.799212,76.221359 
z"/>
<path fill="#EF1EF3" opacity="1.000000" stroke="none" 
	d="
M30.437492,71.996246 
	C29.746958,73.251549 28.691917,74.518524 27.357273,75.931732 
	C28.076109,74.721283 29.074549,73.364601 30.437492,71.996246 
z"/>
<path fill="#F8F4FA" opacity="1.000000" stroke="none" 
	d="
M56.098862,109.063858 
	C56.033436,108.568321 56.036594,108.580849 56.043472,108.101639 
	C55.932106,106.422882 55.813866,105.223335 55.780083,103.567871 
	C56.532837,96.748886 57.201138,90.385811 58.066780,83.722351 
	C65.092407,67.359863 71.289474,62.807835 85.909843,63.114933 
	C85.909843,63.114933 85.928665,63.100849 86.173904,63.339428 
	C88.587883,64.426643 90.756622,65.275284 92.925362,66.123917 
	C92.925362,66.123917 92.993347,66.053284 93.027466,66.312508 
	C93.372536,66.704918 93.683487,66.838097 93.994431,66.971283 
	C94.119263,67.286644 94.325966,67.533417 94.954506,68.056915 
	C95.867424,68.859512 96.440376,69.316788 97.013321,69.774071 
	C99.738113,74.437813 102.412590,79.132111 105.215836,83.748207 
	C106.157394,85.298668 106.730881,88.583931 110.083603,85.442139 
	C109.765923,86.364670 108.904358,87.176262 107.648270,88.179413 
	C107.170715,94.245247 107.020393,100.120361 107.094292,105.992645 
	C107.103012,106.685555 108.341866,107.362984 109.153519,108.365784 
	C109.471695,109.579643 109.646843,110.475296 109.821991,111.370956 
	C108.974106,110.934761 108.126221,110.498566 106.849548,109.841789 
	C104.950546,119.651077 102.014877,128.663086 93.817978,135.546707 
	C92.898537,136.263016 92.451691,136.633392 92.004845,137.003769 
	C92.004845,137.003769 92.000000,137.000000 91.741837,137.047440 
	C91.253860,137.343262 91.024040,137.591644 90.794228,137.840027 
	C90.794228,137.840027 90.907738,137.857788 90.480072,137.857285 
	C84.069962,140.288116 78.110550,139.671158 72.161217,137.721588 
	C72.161217,137.721588 72.113281,137.818115 72.067856,137.558533 
	C71.682068,137.180786 71.341705,137.062637 71.001343,136.944489 
	C71.001343,136.944489 71.004318,137.003372 70.864868,136.738083 
	C70.179977,136.243301 69.634521,136.013794 69.089073,135.784302 
	C69.089073,135.784302 69.068069,135.902069 69.027206,135.626740 
	C68.662422,135.151794 68.338516,134.952164 68.014603,134.752533 
	C64.402672,128.722733 60.790733,122.692940 57.033176,116.332870 
	C56.646465,113.854858 56.405376,111.707130 56.098862,109.063858 
M87.025818,119.022774 
	C87.025818,119.022774 87.087990,119.099327 87.627151,118.756264 
	C87.808479,118.153038 87.989807,117.549812 88.312302,116.766060 
	C88.312302,116.766060 88.199089,116.566811 88.702896,116.066643 
	C88.835487,115.385345 88.968079,114.704056 89.022858,114.010841 
	C89.022858,114.010841 89.065109,114.077271 89.591461,113.494995 
	C91.573204,103.076248 92.234123,92.759613 87.051125,82.207710 
	C85.174202,79.340240 82.739197,77.294838 79.259621,79.106438 
	C76.570816,80.506340 74.526314,82.800858 74.140297,86.109673 
	C74.064598,86.758522 73.829414,87.388763 73.276100,88.688934 
	C73.007050,90.599442 72.737999,92.509949 72.619499,93.351433 
	C70.278481,95.403908 68.609116,96.867516 66.939751,98.331123 
	C68.475533,99.990181 70.015640,101.645294 71.542183,103.312813 
	C71.756447,103.546867 71.904366,103.841660 72.023499,104.892685 
	C73.301353,109.297012 74.579201,113.701347 75.833305,118.021294 
	C75.833305,118.021294 75.787262,118.095886 75.729218,118.733505 
	C76.110634,119.195747 76.492050,119.657997 76.954208,120.008736 
	C76.954208,120.008736 76.841545,120.087860 76.897125,120.740471 
	C77.563126,121.230499 78.229134,121.720535 78.945091,122.107010 
	C78.945091,122.107010 78.840874,122.155579 79.163086,122.719208 
	C79.780701,122.862656 80.398308,123.006104 81.712296,123.289680 
	C82.528313,122.928375 83.344330,122.567070 84.076721,122.249329 
	C84.076721,122.249329 84.170685,122.257149 84.806969,122.164673 
	C85.302841,121.518250 85.798714,120.871834 86.221489,120.106575 
	C86.221489,120.106575 86.220528,120.246086 86.738441,120.056206 
	C86.865524,119.721802 86.992615,119.387390 87.025818,119.022774 
M70.482132,91.406357 
	C70.747231,91.534073 71.003708,91.693916 71.282974,91.768799 
	C71.361023,91.789734 71.506271,91.559990 71.620697,91.445244 
	C71.361855,91.322632 71.103020,91.200020 70.482132,91.406357 
z"/>
<path fill="#EF1EF3" opacity="1.000000" stroke="none" 
	d="
M85.894012,62.785660 
	C71.289474,62.807835 65.092407,67.359863 57.772678,83.819656 
	C57.038059,82.762939 56.877670,81.288704 56.535069,79.858101 
	C55.739536,76.536133 54.856041,73.235229 54.008202,69.925789 
	C52.464680,68.137733 50.921158,66.349678 49.200264,64.292282 
	C51.157887,64.992081 53.407005,65.774094 55.393963,66.985954 
	C57.178112,68.074112 58.674156,69.634651 60.294426,70.984413 
	C67.211151,62.948929 78.217148,59.387592 85.894012,62.785660 
z"/>
<path fill="#EF1EF3" opacity="1.000000" stroke="none" 
	d="
M92.818886,65.769348 
	C90.756622,65.275284 88.587883,64.426643 86.181198,63.330215 
	C88.804199,62.105251 91.782394,60.787815 92.818886,65.769348 
z"/>
<path fill="#EF1EF3" opacity="1.000000" stroke="none" 
	d="
M48.811737,63.670059 
	C47.209442,63.742393 45.450287,63.492699 43.314011,63.154751 
	C44.842888,63.160339 46.748882,63.254185 48.811737,63.670059 
z"/>
<path fill="#F01EF4" opacity="1.000000" stroke="none" 
	d="
M97.024597,69.566536 
	C96.440376,69.316788 95.867424,68.859512 95.183502,68.143318 
	C95.072525,67.884407 95.105064,67.859703 95.347931,67.900635 
	C95.590790,67.941559 96.045013,67.942200 96.045013,67.942200 
	C96.351067,68.073471 96.606148,68.270668 96.941269,68.739357 
	C97.072273,68.944923 97.035873,69.359001 97.024597,69.566536 
z"/>
<path fill="#EF1EF3" opacity="1.000000" stroke="none" 
	d="
M95.954834,67.797005 
	C96.045013,67.942200 95.590790,67.941559 95.367950,67.904877 
	C95.145119,67.868195 95.437119,67.509720 95.437119,67.509720 
	C95.437119,67.509720 95.864662,67.651810 95.954834,67.797005 
z"/>
<path fill="#EF1EF3" opacity="1.000000" stroke="none" 
	d="
M93.877350,66.751862 
	C93.683487,66.838097 93.372536,66.704918 92.979790,66.323883 
	C93.247231,66.111450 93.534653,66.263580 93.877350,66.751862 
z"/>
<path fill="#F9F4FA" opacity="1.000000" stroke="none" 
	d="
M108.042793,87.987846 
	C108.904358,87.176262 109.765923,86.364670 110.401932,85.326523 
	C110.143074,84.637108 110.109779,84.174248 110.338455,83.210083 
	C111.093178,81.797417 111.585930,80.886055 112.078674,79.974693 
	C112.436234,79.342659 112.793800,78.710632 113.417175,77.580368 
	C114.459618,75.738617 115.236252,74.395096 116.012878,73.051575 
	C116.153389,72.964401 116.335228,72.908592 116.428551,72.785606 
	C128.129089,57.367081 147.499176,60.409317 156.143936,79.513687 
	C157.144333,81.724503 157.956421,84.020523 158.946625,86.648651 
	C159.048965,95.949249 159.613800,104.926270 158.844543,113.787468 
	C158.444748,118.392639 156.173218,123.056877 153.901962,127.234932 
	C147.969177,138.148453 137.870972,141.782257 125.556168,137.820663 
	C125.161690,137.788361 125.086998,137.847122 125.028763,137.629028 
	C124.642471,137.276810 124.314407,137.142715 123.986351,137.008606 
	C123.986351,137.008606 123.998444,137.001175 123.817535,136.761810 
	C123.101875,136.236649 122.567131,135.950836 122.032379,135.665024 
	C118.549263,130.614853 115.066154,125.564667 111.350845,119.895912 
	C110.777443,118.386421 110.436226,117.495514 110.095001,116.604599 
	C110.095001,116.604599 110.178993,116.306259 110.094574,116.176964 
	C109.926674,114.744690 109.843201,113.441711 109.790855,111.754845 
	C109.646843,110.475296 109.471695,109.579643 109.156075,107.893471 
	C108.989319,103.941978 109.068832,100.775574 108.907288,97.621521 
	C108.742485,94.403976 108.340782,91.198570 108.042793,87.987846 
M128.985657,119.577194 
	C129.296204,119.769333 129.606766,119.961464 130.190872,120.767822 
	C133.223297,124.254532 136.290817,124.566719 138.992371,121.145714 
	C140.530533,119.197922 141.230362,116.588112 142.687393,113.741966 
	C142.861450,112.468681 143.035507,111.195396 143.564804,109.236397 
	C143.612946,108.471207 143.661072,107.706017 143.940674,106.040230 
	C144.141357,98.525436 144.837219,90.945251 140.961761,83.389801 
	C140.626587,82.937859 140.291412,82.485924 139.830246,81.533333 
	C139.554779,81.345116 139.279312,81.156891 139.000168,80.999664 
	C139.000168,80.999664 139.029785,80.986252 138.755341,80.350937 
	C133.813263,77.209557 130.127991,78.216278 127.785835,83.797798 
	C124.198242,92.347275 124.131836,101.245476 125.850761,110.978935 
	C126.878113,113.679893 127.905457,116.380852 128.986252,119.023872 
	C128.986252,119.023872 128.907455,119.025513 128.985657,119.577194 
z"/>
<path fill="#F01EF4" opacity="1.000000" stroke="none" 
	d="
M115.635483,73.083389 
	C115.236252,74.395096 114.459618,75.738617 113.417831,77.304390 
	C113.854469,76.056160 114.556274,74.585678 115.635483,73.083389 
z"/>
<path fill="#F01EF4" opacity="1.000000" stroke="none" 
	d="
M111.815582,80.142838 
	C111.585930,80.886055 111.093178,81.797417 110.302902,82.863052 
	C110.521065,82.115211 111.036774,81.213104 111.815582,80.142838 
z"/>
<path fill="#D421D8" opacity="1.000000" stroke="none" 
	d="
M110.066696,116.991081 
	C110.436226,117.495514 110.777443,118.386421 111.123489,119.640442 
	C110.765007,119.128212 110.401695,118.252892 110.066696,116.991081 
z"/>
<path fill="#D421D9" opacity="1.000000" stroke="none" 
	d="
M122.148331,135.972626 
	C122.567131,135.950836 123.101875,136.236649 123.816727,136.768341 
	C123.419319,136.769562 122.841805,136.524902 122.148331,135.972626 
z"/>
<path fill="#D421D9" opacity="1.000000" stroke="none" 
	d="
M124.100464,137.240173 
	C124.314407,137.142715 124.642471,137.276810 125.041351,137.674835 
	C124.812981,137.783066 124.513786,137.627396 124.100464,137.240173 
z"/>
<path fill="#CE31CF" opacity="1.000000" stroke="none" 
	d="
M72.256699,138.081848 
	C78.110550,139.671158 84.069962,140.288116 90.466866,137.801376 
	C89.377968,138.666428 87.874603,139.586884 86.155060,140.775009 
	C81.177292,141.391556 76.365273,142.003830 72.256699,138.081848 
z"/>
<path fill="#CE31CF" opacity="1.000000" stroke="none" 
	d="
M69.217651,136.073929 
	C69.634521,136.013794 70.179977,136.243301 70.891205,136.724838 
	C70.486732,136.772446 69.916481,136.567993 69.217651,136.073929 
z"/>
<path fill="#CE31CF" opacity="1.000000" stroke="none" 
	d="
M68.113251,135.028503 
	C68.338516,134.952164 68.662422,135.151794 69.086800,135.621643 
	C68.862144,135.696075 68.537025,135.500275 68.113251,135.028503 
z"/>
<path fill="#CE31CF" opacity="1.000000" stroke="none" 
	d="
M71.123703,137.185394 
	C71.341705,137.062637 71.682068,137.180786 72.121735,137.557144 
	C71.896034,137.685669 71.571045,137.555984 71.123703,137.185394 
z"/>
<path fill="#CE31CF" opacity="1.000000" stroke="none" 
	d="
M92.318619,136.975327 
	C92.451691,136.633392 92.898537,136.263016 93.628082,135.810745 
	C93.484650,136.134857 93.058517,136.540878 92.318619,136.975327 
z"/>
<path fill="#CE31CF" opacity="1.000000" stroke="none" 
	d="
M91.051590,137.796265 
	C91.024040,137.591644 91.253860,137.343262 91.743134,137.049911 
	C91.771385,137.254135 91.540169,137.503311 91.051590,137.796265 
z"/>
<path fill="#D026D6" opacity="1.000000" stroke="none" 
	d="
M53.992630,70.402031 
	C54.856041,73.235229 55.739536,76.536133 56.535069,79.858101 
	C56.877670,81.288704 57.038059,82.762939 57.575333,84.120049 
	C57.201138,90.385811 56.532837,96.748886 55.489647,103.566811 
	C54.727398,104.017548 54.340038,104.013420 53.952679,104.009300 
	C53.960804,92.965622 53.968933,81.921951 53.992630,70.402031 
z"/>
<path fill="#D310D9" opacity="1.000000" stroke="none" 
	d="
M53.880089,104.453911 
	C54.340038,104.013420 54.727398,104.017548 55.405193,104.022720 
	C55.813866,105.223335 55.932106,106.422882 56.045570,108.074509 
	C55.296364,107.317230 54.551933,106.107880 53.880089,104.453911 
z"/>
<path fill="#F414F8" opacity="1.000000" stroke="none" 
	d="
M88.199089,116.566811 
	C88.199089,116.566811 88.312302,116.766060 87.962357,117.028191 
	C87.437599,117.893326 87.262794,118.496323 87.087990,119.099327 
	C87.087990,119.099327 87.025818,119.022774 86.822556,119.147568 
	C86.486382,119.596939 86.353455,119.921509 86.220528,120.246086 
	C86.220528,120.246086 86.221489,120.106575 85.930527,120.197411 
	C85.149933,120.944550 84.660309,121.600853 84.170685,122.257149 
	C84.170685,122.257149 84.076721,122.249329 83.722725,122.155075 
	C82.569550,122.051773 81.770378,122.042717 80.615585,122.030907 
	C79.786934,122.070625 79.313904,122.113098 78.840874,122.155579 
	C78.840874,122.155579 78.945091,122.107010 78.849838,121.846405 
	C78.116898,121.086487 77.479218,120.587173 76.841545,120.087860 
	C76.841545,120.087860 76.954208,120.008736 76.947510,119.740143 
	C76.556290,119.012993 76.171776,118.554443 75.787262,118.095886 
	C75.787262,118.095886 75.833305,118.021294 75.903008,117.654526 
	C75.949249,116.189926 75.925789,115.092102 76.169319,113.810226 
	C75.972870,112.757492 75.509430,111.888794 75.030563,110.641846 
	C75.005287,109.506546 74.995438,108.749489 75.344299,107.956100 
	C77.120956,106.941032 78.538895,105.962318 79.966965,104.981712 
	C79.977104,104.979820 79.983948,104.955208 80.383484,104.916794 
	C83.776520,104.183266 86.770035,103.488152 89.065109,102.955215 
	C89.065109,106.148140 89.065109,110.112701 89.065109,114.077271 
	C89.065109,114.077271 89.022858,114.010841 88.768448,114.232529 
	C88.409058,115.158417 88.304077,115.862610 88.199089,116.566811 
z"/>
<path fill="#E925EA" opacity="1.000000" stroke="none" 
	d="
M89.328285,113.786133 
	C89.065109,110.112701 89.065109,106.148140 89.065109,102.955215 
	C86.770035,103.488152 83.776520,104.183266 80.388504,104.610382 
	C80.025536,103.934265 80.057076,103.526138 80.414665,102.953369 
	C84.174980,101.554886 86.552437,99.822868 84.039711,95.403564 
	C84.309189,92.750824 84.580544,90.481026 84.942451,87.843033 
	C85.763565,85.943687 86.494118,84.412529 87.224670,82.881371 
	C92.234123,92.759613 91.573204,103.076248 89.328285,113.786133 
z"/>
<path fill="#F3A198" opacity="1.000000" stroke="none" 
	d="
M84.041580,95.786491 
	C86.552437,99.822868 84.174980,101.554886 80.001266,102.911011 
	C76.868881,103.391647 74.475945,103.749992 72.083000,104.108337 
	C71.904366,103.841660 71.756447,103.546867 71.542183,103.312813 
	C70.015640,101.645294 68.475533,99.990181 66.939751,98.331123 
	C68.609116,96.867516 70.278481,95.403908 72.619499,93.351433 
	C72.737999,92.509949 73.007050,90.599442 73.554916,88.618454 
	C73.878143,88.725784 73.922554,88.903595 73.944855,89.475754 
	C74.529091,96.076683 76.308838,97.117279 84.041580,95.786491 
z"/>
<path fill="#CA31CE" opacity="1.000000" stroke="none" 
	d="
M73.966957,89.081398 
	C73.922554,88.903595 73.878143,88.725784 73.750755,88.287781 
	C73.829414,87.388763 74.064598,86.758522 74.140297,86.109673 
	C74.526314,82.800858 76.570816,80.506340 79.259621,79.106438 
	C82.739197,77.294838 85.174202,79.340240 87.137901,82.544540 
	C86.494118,84.412529 85.763565,85.943687 84.723221,87.570702 
	C80.395912,82.302467 78.116440,82.611191 73.966957,89.081398 
z"/>
<path fill="#CD46CC" opacity="1.000000" stroke="none" 
	d="
M107.648270,88.179413 
	C108.340782,91.198570 108.742485,94.403976 108.907288,97.621521 
	C109.068832,100.775574 108.989319,103.941978 109.013046,107.575272 
	C108.341866,107.362984 107.103012,106.685555 107.094292,105.992645 
	C107.020393,100.120361 107.170715,94.245247 107.648270,88.179413 
z"/>
<path fill="#CF2DD0" opacity="1.000000" stroke="none" 
	d="
M72.053253,104.500511 
	C74.475945,103.749992 76.868881,103.391647 79.675217,103.075661 
	C80.057076,103.526138 80.025536,103.934265 79.988968,104.648796 
	C79.983948,104.955208 79.977104,104.979820 79.562256,104.977409 
	C77.812500,106.053040 73.182449,102.586235 74.985588,107.992439 
	C74.995438,108.749489 75.005287,109.506546 75.011276,110.970901 
	C75.305725,112.450233 75.604027,113.222252 75.902328,113.994270 
	C75.925789,115.092102 75.949249,116.189926 75.914886,117.696716 
	C74.579201,113.701347 73.301353,109.297012 72.053253,104.500511 
z"/>
<path fill="#CF2DD0" opacity="1.000000" stroke="none" 
	d="
M76.869339,120.414169 
	C77.479218,120.587173 78.116898,121.086487 78.824860,121.898178 
	C78.229134,121.720535 77.563126,121.230499 76.869339,120.414169 
z"/>
<path fill="#E925EA" opacity="1.000000" stroke="none" 
	d="
M84.488831,122.210907 
	C84.660309,121.600853 85.149933,120.944550 85.967072,120.256836 
	C85.798714,120.871834 85.302841,121.518250 84.488831,122.210907 
z"/>
<path fill="#E925EA" opacity="1.000000" stroke="none" 
	d="
M80.971199,122.033661 
	C81.770378,122.042717 82.569550,122.051773 83.764542,122.133293 
	C83.344330,122.567070 82.528313,122.928375 81.353928,122.940369 
	C80.987434,122.405266 80.979317,122.219460 80.971199,122.033661 
z"/>
<path fill="#F3A198" opacity="1.000000" stroke="none" 
	d="
M70.663155,91.241882 
	C71.103020,91.200020 71.361855,91.322632 71.620697,91.445244 
	C71.506271,91.559990 71.361023,91.789734 71.282974,91.768799 
	C71.003708,91.693916 70.747231,91.534073 70.663155,91.241882 
z"/>
<path fill="#E925EA" opacity="1.000000" stroke="none" 
	d="
M87.357574,118.927795 
	C87.262794,118.496323 87.437599,117.893326 87.891769,117.118454 
	C87.989807,117.549812 87.808479,118.153038 87.357574,118.927795 
z"/>
<path fill="#E925EA" opacity="1.000000" stroke="none" 
	d="
M88.450989,116.316727 
	C88.304077,115.862610 88.409058,115.158417 88.807358,114.238487 
	C88.968079,114.704056 88.835487,115.385345 88.450989,116.316727 
z"/>
<path fill="#CF2DD0" opacity="1.000000" stroke="none" 
	d="
M80.615585,122.030907 
	C80.979317,122.219460 80.987434,122.405266 81.005737,122.870308 
	C80.398308,123.006104 79.780701,122.862656 79.001984,122.437393 
	C79.313904,122.113098 79.786934,122.070625 80.615585,122.030907 
z"/>
<path fill="#CF2DD0" opacity="1.000000" stroke="none" 
	d="
M75.758240,118.414696 
	C76.171776,118.554443 76.556290,119.012993 76.907135,119.795898 
	C76.492050,119.657997 76.110634,119.195747 75.758240,118.414696 
z"/>
<path fill="#E925EA" opacity="1.000000" stroke="none" 
	d="
M86.479485,120.151146 
	C86.353455,119.921509 86.486382,119.596939 86.869499,119.162674 
	C86.992615,119.387390 86.865524,119.721802 86.479485,120.151146 
z"/>
<path fill="#D229D6" opacity="1.000000" stroke="none" 
	d="
M125.898003,110.227539 
	C124.131836,101.245476 124.198242,92.347275 127.785835,83.797798 
	C130.127991,78.216278 133.813263,77.209557 138.511200,80.696808 
	C134.959778,81.394920 132.107941,82.427284 130.718185,86.075821 
	C130.247635,86.400726 130.060059,86.659515 129.603134,87.041328 
	C128.829132,89.077927 128.397461,91.044403 127.962410,93.336349 
	C127.949768,94.095711 127.940521,94.529594 127.555389,95.068771 
	C127.120132,98.458717 127.060753,101.743385 127.007614,105.350327 
	C127.011932,106.101875 127.010010,106.531143 126.738510,107.194748 
	C126.278625,108.361893 126.088318,109.294716 125.898003,110.227539 
z"/>
<path fill="#EB29EF" opacity="1.000000" stroke="none" 
	d="
M142.307709,114.276413 
	C141.230362,116.588112 140.530533,119.197922 138.992371,121.145714 
	C136.290817,124.566719 133.223297,124.254532 129.961990,120.213287 
	C129.457886,119.447662 129.182678,119.236588 128.907455,119.025513 
	C128.907455,119.025513 128.986252,119.023872 128.984863,118.668671 
	C128.996689,117.543602 129.009918,116.773750 129.368561,116.045227 
	C131.647858,117.752609 133.581711,119.418663 136.195358,121.670364 
	C136.934448,120.113457 137.705734,118.022621 138.883408,116.193436 
	C139.526749,115.194206 140.858002,114.637894 141.985840,113.980881 
	C142.092651,114.079910 142.307709,114.276413 142.307709,114.276413 
z"/>
<path fill="#F119F3" opacity="1.000000" stroke="none" 
	d="
M130.928207,85.956818 
	C132.107941,82.427284 134.959778,81.394920 138.648407,81.014465 
	C139.029785,80.986252 139.000168,80.999664 139.089005,81.217300 
	C139.371414,81.720222 139.630890,81.919907 139.956238,82.033981 
	C140.291412,82.485924 140.626587,82.937859 140.975800,84.056152 
	C140.989731,85.485527 140.989639,86.248558 140.828964,87.103035 
	C140.782867,87.468102 140.897354,87.741714 141.014130,88.343567 
	C141.016830,89.109451 141.017258,89.547104 140.625443,89.975800 
	C137.624313,87.486725 135.121292,84.760918 130.928207,85.956818 
z"/>
<path fill="#F119F3" opacity="1.000000" stroke="none" 
	d="
M143.709213,106.940826 
	C143.661072,107.706017 143.612946,108.471207 143.115021,109.603851 
	C142.115646,109.986908 141.566071,110.002495 141.010498,109.554062 
	C140.932602,105.684166 140.815491,102.278427 140.804535,98.872353 
	C140.797165,96.579285 140.939789,94.285744 141.405762,92.090584 
	C142.196594,93.852737 142.770248,95.497200 142.960251,97.184860 
	C143.324905,100.423904 143.471924,103.687447 143.709213,106.940826 
z"/>
<path fill="#EB29EF" opacity="1.000000" stroke="none" 
	d="
M143.824951,106.490524 
	C143.471924,103.687447 143.324905,100.423904 142.960251,97.184860 
	C142.770248,95.497200 142.196594,93.852737 141.484741,91.870491 
	C141.121399,91.029732 141.069534,90.507248 141.017685,89.984756 
	C141.017258,89.547104 141.016830,89.109451 141.011124,88.092461 
	C141.000412,87.345940 140.994980,87.178764 140.989563,87.011581 
	C140.989639,86.248558 140.989731,85.485527 141.007416,84.341431 
	C144.837219,90.945251 144.141357,98.525436 143.824951,106.490524 
z"/>
<path fill="#D716E2" opacity="1.000000" stroke="none" 
	d="
M129.023148,116.003891 
	C129.009918,116.773750 128.996689,117.543602 128.958130,118.697632 
	C127.905457,116.380852 126.878113,113.679893 125.874382,110.603241 
	C126.088318,109.294716 126.278625,108.361893 127.013893,107.466133 
	C128.046951,110.336761 128.535049,113.170326 129.023148,116.003891 
z"/>
<path fill="#EB29EF" opacity="1.000000" stroke="none" 
	d="
M141.016479,110.018089 
	C141.566071,110.002495 142.115646,109.986908 142.937408,109.946716 
	C143.035507,111.195396 142.861450,112.468681 142.497559,114.009186 
	C142.307709,114.276413 142.092651,114.079910 141.982407,113.651077 
	C141.586929,112.154182 141.301712,111.086136 141.016479,110.018089 
z"/>
<path fill="#D229D6" opacity="1.000000" stroke="none" 
	d="
M139.893250,81.783661 
	C139.630890,81.919907 139.371414,81.720222 139.090851,81.201797 
	C139.279312,81.156891 139.554779,81.345116 139.893250,81.783661 
z"/>
<path fill="#D716E2" opacity="1.000000" stroke="none" 
	d="
M128.946564,119.301353 
	C129.182678,119.236588 129.457886,119.447662 129.825211,119.906174 
	C129.606766,119.961464 129.296204,119.769333 128.946564,119.301353 
z"/>
<path fill="#E925EA" opacity="1.000000" stroke="none" 
	d="
M75.344299,107.956100 
	C73.182449,102.586235 77.812500,106.053040 79.552124,104.979301 
	C78.538895,105.962318 77.120956,106.941032 75.344299,107.956100 
z"/>
<path fill="#E925EA" opacity="1.000000" stroke="none" 
	d="
M76.169319,113.810226 
	C75.604027,113.222252 75.305725,112.450233 75.026703,111.349159 
	C75.509430,111.888794 75.972870,112.757492 76.169319,113.810226 
z"/>
<path fill="#160A16" opacity="1.000000" stroke="none" 
	d="
M73.944855,89.475754 
	C78.116440,82.611191 80.395912,82.302467 84.632660,87.938889 
	C84.580544,90.481026 84.309189,92.750824 84.039711,95.403564 
	C76.308838,97.117279 74.529091,96.076683 73.944855,89.475754 
z"/>
<path fill="#F612FB" opacity="1.000000" stroke="none" 
	d="
M141.010513,109.554062 
	C141.301712,111.086136 141.586929,112.154182 141.875595,113.552040 
	C140.858002,114.637894 139.526749,115.194206 138.883408,116.193436 
	C137.705734,118.022621 136.934448,120.113457 136.195358,121.670364 
	C133.581711,119.418663 131.647858,117.752609 129.368561,116.045227 
	C128.535049,113.170326 128.046951,110.336761 127.283463,107.231812 
	C127.010010,106.531143 127.011932,106.101875 127.289810,105.053604 
	C127.687599,101.277565 127.809433,98.120522 127.931274,94.963478 
	C127.940521,94.529594 127.949768,94.095711 128.254227,93.122467 
	C129.014771,90.712471 129.480118,88.841835 129.945465,86.971199 
	C130.060059,86.659515 130.247635,86.400726 130.718185,86.075821 
	C135.121292,84.760918 137.624313,87.486725 140.625443,89.975800 
	C141.069534,90.507248 141.121399,91.029732 141.094269,91.772316 
	C140.939789,94.285744 140.797165,96.579285 140.804535,98.872353 
	C140.815491,102.278427 140.932602,105.684166 141.010513,109.554062 
z"/>
<path fill="#D716E2" opacity="1.000000" stroke="none" 
	d="
M127.555389,95.068771 
	C127.809433,98.120522 127.687599,101.277565 127.283569,104.731323 
	C127.060753,101.743385 127.120132,98.458717 127.555389,95.068771 
z"/>
<path fill="#D716E2" opacity="1.000000" stroke="none" 
	d="
M129.603119,87.041328 
	C129.480118,88.841835 129.014771,90.712471 128.257614,92.796997 
	C128.397461,91.044403 128.829132,89.077927 129.603119,87.041328 
z"/>
<path fill="#F612FB" opacity="1.000000" stroke="none" 
	d="
M140.828964,87.103035 
	C140.994980,87.178764 141.000412,87.345940 141.008850,87.764229 
	C140.897354,87.741714 140.782867,87.468102 140.828964,87.103035 
z"/>
</svg>